# xmcd
#
# Track frame offsets:
#	150
#	12872
#	25518
#	48938
#	72282
#	90041
#	107800
#	124223
#	140646
#	169637
#	198628
#	216117
#	233606
#	256346
#	279086
#	296081
#	313076
#	332354
#
# Disc length: 4446 seconds
#
# Revision: 1
# Processed by: cddbd v1.5.1PL2 Copyright (c) Steve Scherf et al.
# Submitted via: audiograbber 1.83.01
#
DISCID=f4115c12
DTITLE=Guitar Play Along - Volume 24 - Eric Clapton
DYEAR=2004
DGENRE=Instructional
TTITLE0=Badge - Demo
TTITLE1=Badge - Play Along
TTITLE2=Bell Bottom Blues - Demo
TTITLE3=Bell Bottom Blues - Play Along
TTITLE4=Change the World - Demo
TTITLE5=Change the World - Play Along
TTITLE6=Cocaine - Demo
TTITLE7=Cocaine - Play Along
TTITLE8=Key to the Highway - Demo
TTITLE9=Key to the Highway - Play Along
TTITLE10=Lay Down Sally - Demo
TTITLE11=Lay Down Sally - Play Along
TTITLE12=White Room - Demo
TTITLE13=White Room - Play Along
TTITLE14=Wonderful Tonight - Demo
TTITLE15=Wonderful Tonight - Play Along
TTITLE16=Tuning
TTITLE17=Data Track
EXTD=
EXTT0=
EXTT1=
EXTT2=
EXTT3=
EXTT4=
EXTT5=
EXTT6=
EXTT7=
EXTT8=
EXTT9=
EXTT10=
EXTT11=
EXTT12=
EXTT13=
EXTT14=
EXTT15=
EXTT16=
EXTT17=
PLAYORDER=
